<svg width="74" height="74" viewBox="0 0 74 74" fill="none" xmlns="http://www.w3.org/2000/svg">
<circle cx="37" cy="37" r="37" fill="#FF7500" fill-opacity="0.04"/>
<path d="M19 36H55M53 48V37.3582C53 36.8511 53.0002 36.5977 52.9688 36.3484C52.9408 36.127 52.8941 35.9081 52.8297 35.6944C52.7571 35.4538 52.6539 35.2223 52.448 34.759L49.3555 27.8008C48.744 26.4251 48.4383 25.737 47.9551 25.2327C47.5279 24.7868 47.0041 24.446 46.4232 24.2367C45.766 24 45.0126 24 43.5071 24H30.4922C28.9867 24 28.2343 24 27.5771 24.2367C26.9963 24.446 26.4721 24.7868 26.0449 25.2327C25.5617 25.737 25.2557 26.4251 24.6443 27.8008L21.5518 34.759C21.3458 35.2223 21.2424 35.4538 21.1699 35.6944C21.1055 35.9081 21.0594 36.127 21.0314 36.3484C21 36.5977 21 36.8511 21 37.3582V48M53 48L21 48M53 48V50C53 52.2091 51.2091 54 49 54C46.7909 54 45 52.2091 45 50V48M21 48V50C21 52.2091 22.7909 54 25 54C27.2091 54 29 52.2091 29 50V48" stroke="#FF6B00" stroke-width="2" stroke-linecap="round" stroke-linejoin="round"/>
</svg>
